<svg xmlns="http://www.w3.org/2000/svg" width="53" height="57"><path fill="#f2374d" d="M8.377 10.353a1.01 1.01 0 010-1.424.996.996 0 011.415 0c.872.875 2.29.875 3.161 0a.997.997 0 011.417 0 1.01 1.01 0 010 1.424 4.217 4.217 0 01-2.996 1.244 4.213 4.213 0 01-2.997-1.244zm10.665 37.966a1.008 1.008 0 01-.906 1.433 1 1 0 01-.907-.58L14.46 43.23a1.008 1.008 0 01.483-1.338.999.999 0 011.332.485zm23.063-5.09l-2.767 5.944a1 1 0 01-1.331.484 1.008 1.008 0 01-.483-1.338l2.768-5.942a.998.998 0 011.331-.485c.501.235.716.835.482 1.337zm-8.22 1.839l-.921 5.942a1.004 1.004 0 01-1.145.84 1.007 1.007 0 01-.835-1.151l.922-5.942c.085-.55.598-.921 1.145-.84.545.086.919.601.835 1.15zm-9.224-.311l.922 5.942a1.007 1.007 0 01-.99 1.163c-.486 0-.912-.356-.99-.852l-.921-5.942a1.006 1.006 0 01.835-1.15 1.006 1.006 0 011.144.839zm2.622-25.144c0-.557.449-1.007 1.002-1.007 4.137 0 8.062-.528 11.349-1.525a1.006 1.006 0 01.58 1.927c-3.473 1.053-7.598 1.61-11.928 1.61-.553 0-1.003-.45-1.003-1.005zm-17.8 7.196a.999.999 0 011.35-.424c.924.484 1.914.922 2.943 1.3a1.007 1.007 0 01-.342 1.95.99.99 0 01-.342-.061 26.113 26.113 0 01-3.185-1.407 1.01 1.01 0 01-.425-1.358zm11.593 3.695a1.007 1.007 0 011.116-.876 48.63 48.63 0 0012.237-.061 1 1 0 011.123.868 1.004 1.004 0 01-.864 1.127 51.35 51.35 0 01-6.653.436 49.71 49.71 0 01-6.087-.372 1.005 1.005 0 01-.872-1.122zM39.86 28.49c2.073-.569 3.92-1.28 5.487-2.112a1 1 0 011.353.421 1.01 1.01 0 01-.418 1.361c-1.697.9-3.68 1.665-5.894 2.273a1.002 1.002 0 01-1.23-.706 1.008 1.008 0 01.702-1.237zm12.662 5.81l.002.003-4.857 11.975c-3.126 5.779-5.812 7.276-11.645 9.541-2.018.785-4.873 1.177-7.73 1.177s-5.716-.392-7.75-1.176c-5.821-2.243-8.51-3.744-11.698-9.636l-.048-.103-3.78-9.362c-1.284-1.525-1.94-3.156-1.94-4.853 0-2.332 1.252-4.57 3.629-6.502a6.392 6.392 0 01-.104-1.134c0-.783.158-1.573.466-2.357-.26-.21-.51-.432-.749-.674-3.923-3.943-4.334-9.947-.915-13.385l.915-.92A7.701 7.701 0 019.132 5.1a5.528 5.528 0 00-1.247-1.393C6.33 2.487 4.088 2.092 1.227 2.532a1.003 1.003 0 01-1.142-.843A1.006 1.006 0 01.923.542c3.445-.532 6.211.007 8.222 1.6a7.682 7.682 0 012.034 2.48c2.883-.306 6.053.778 8.456 3.193.38.382.717.797 1.022 1.23 2.265-.568 4.787-.893 7.37-.92 1.052-.01 1.719-.258 1.982-.738.612-1.112-.499-3.613-1.133-4.65a1.015 1.015 0 01-.044-.976c.154-.31.455-.52.798-.554 3.713-.37 6.792.543 9.16 2.713 4.2 3.847 4.816 10.443 4.904 12.494 3.733 2.093 5.78 4.854 5.78 7.817 0 .376-.036.755-.105 1.134 2.378 1.932 3.63 4.17 3.63 6.502 0 .817-.163 1.634-.476 2.434zM7.735 19.776c.348.35.727.663 1.128.933l.01.003c.356.24.727.44 1.108.608l.048.024a7.187 7.187 0 001.24.41c.382.09.77.15 1.158.178l.086.004a7.426 7.426 0 003.58-.673l.055-.026a7.35 7.35 0 001.046-.605c.027-.018.053-.04.08-.059.331-.238.65-.5.945-.796.275-.278.52-.577.744-.886.031-.044.064-.084.094-.128.213-.307.4-.627.563-.957.02-.04.039-.082.058-.123.323-.69.538-1.424.638-2.173l.017-.118a7.48 7.48 0 00.046-1.102c-.001-.048-.005-.096-.007-.143a7.46 7.46 0 00-1.031-3.444c-.002-.004-.002-.008-.004-.01a7.463 7.463 0 00-1.119-1.455c-1.75-1.76-3.986-2.667-6.079-2.667-.073 0-.143.017-.216.019.125.515.157.858.161.9a1.004 1.004 0 01-.998 1.092c-.513 0-.95-.395-.996-.918a5.81 5.81 0 00-.146-.714 5.777 5.777 0 00-2.209 1.368l-.915.92c-2.638 2.652-2.227 7.38.915 10.538zM5.08 31.867c0 .45.069.9.205 1.346.032-.02.066-.035.098-.054a4.366 4.366 0 01.687-.33 4.125 4.125 0 01.847-.22c.072-.01.144-.022.217-.03.12-.014.24-.018.363-.022.067-.002.133-.006.204-.007.152.002.308.013.464.028.04.003.08.003.12.008.198.023.4.058.604.103.05.01.102.028.154.04.155.038.31.078.468.127.074.024.15.052.225.079a6.958 6.958 0 01.668.262 10.312 10.312 0 011.073.541l.275.162c.137.084.274.172.412.262.09.06.182.119.273.181.145.1.29.205.435.312.086.064.174.126.26.192.16.121.32.251.48.382.074.062.148.12.225.183.235.198.471.405.708.624a5 5 0 01.63-.357c.06-.03.121-.056.184-.083.164-.072.33-.135.501-.188.062-.02.122-.04.184-.057a5.593 5.593 0 011.404-.192c.025 0 .05-.005.075-.005.041 0 .083.007.125.007.183.004.367.016.551.034a7.439 7.439 0 01.931.151h.001a8.682 8.682 0 01.94.281c.182.066.364.136.545.213.07.029.137.056.206.087.24.108.481.223.717.351l.005.002c.235.128.465.265.693.41a12.78 12.78 0 01.703.48c.066.046.132.093.197.142.22.166.436.339.646.519a7.504 7.504 0 019.14-.002c2.775-2.412 6.485-3.618 9.149-1.798.377-.348.75-.66 1.12-.958.068-.054.136-.11.204-.163.352-.274.7-.525 1.046-.751.071-.047.142-.09.214-.136a12.4 12.4 0 011.043-.6l.072-.033a9.56 9.56 0 01.972-.414c.059-.02.118-.045.177-.065.321-.11.636-.19.944-.25.062-.012.123-.021.184-.03a5.42 5.42 0 01.919-.08c.023 0 .045.003.068.003.293.006.575.04.85.098.035.008.07.011.104.02.28.065.547.161.805.281.02.009.042.011.062.021.095-.37.142-.742.142-1.11 0-2.318-1.82-4.157-3.345-5.292a1.01 1.01 0 01-.365-1.093 4.46 4.46 0 00.184-1.25c0-2.31-1.857-4.553-5.226-6.316a1.011 1.011 0 01-.54-.897c0-.077-.017-7.728-4.27-11.616-1.609-1.47-3.656-2.228-6.098-2.26.637 1.439 1.3 3.62.425 5.216-.637 1.164-1.886 1.761-3.715 1.782-2.224.023-4.405.269-6.38.715.175.421.31.858.422 1.302l.02.082c.18.735.282 1.493.282 2.27 0 .103-.012.205-.015.307-.003.09-.008.18-.013.271a9.492 9.492 0 01-.48 2.473c-.02.06-.042.12-.064.181a9.354 9.354 0 01-1.345 2.478 9.398 9.398 0 01-.84.982c-.201.203-.41.391-.626.571-.088.076-.181.144-.272.216-.123.094-.247.189-.373.278a10.867 10.867 0 01-.645.412 9.095 9.095 0 01-.482.269l-.038.018a9.212 9.212 0 01-1.977.73l-.06.014a8.867 8.867 0 01-.647.13l-.119.018c-.466.07-.938.117-1.419.117-.15 0-.297-.014-.445-.022-.095-.004-.19-.007-.285-.013a10.145 10.145 0 01-1.312-.193c-.087-.02-.173-.044-.26-.066a9.247 9.247 0 01-1.655-.589c-.075-.033-.149-.062-.222-.099a4.21 4.21 0 00-.193 1.24c0 .414.062.834.184 1.25.118.405-.028.843-.365 1.094-1.526 1.135-3.344 2.974-3.344 5.293zm45.052 3.012a2.365 2.365 0 00-1.008-.301c-.064-.005-.131 0-.197 0-.118 0-.233-.003-.352.01-.085.009-.171.027-.257.042-.102.017-.203.033-.307.058-.096.023-.19.055-.287.085-.095.03-.19.057-.285.092-.1.038-.2.08-.3.122-.092.039-.183.077-.274.12a8.801 8.801 0 00-.566.292 13.566 13.566 0 00-1.358.88l-.239.181c-.08.06-.161.122-.238.183l-.241.195-.195.16c-.087.073-.167.142-.247.212l-.141.123-.27.242-.061.057a14.78 14.78 0 00-.483.462h-.001l-.706.702-.705-.704a3.236 3.236 0 00-.514-.414c-2.21-1.457-5.471.44-7.25 2.22l-.707.706-.706-.706a5.497 5.497 0 00-7.766 0l-.703.703-.706-.699c-1.948-1.929-5.651-4-7.867-1.807l-.703.695-.702-.695c-.836-.826-4.885-4.622-7.357-3.22l.386.953v.003l3.814 9.442c2.88 5.307 5.087 6.532 10.629 8.67 3.557 1.371 10.513 1.37 14.04 0 5.554-2.157 7.761-3.381 10.58-8.575z"/></svg>