<svg xmlns="http://www.w3.org/2000/svg" width="17" height="17"><path fill="#535353" d="M9.118 7.819l.017-.026v.026zm7.893-6.344V15.8c0 .661-.564 1.198-1.26 1.198H1.232c-.695 0-1.258-.537-1.258-1.198V1.475C-.026.813.537.277 1.232.277h14.52c.695 0 1.259.536 1.259 1.198zM5.138 6.723H2.564v7.551h2.574zm.17-2.335c-.018-.74-.56-1.304-1.44-1.304-.88 0-1.456.564-1.456 1.304 0 .726.559 1.304 1.422 1.304h.017c.897 0 1.456-.578 1.456-1.304zm9.109 5.557c0-2.32-1.27-3.4-2.962-3.4-1.366 0-1.978.734-2.32 1.248v-1.07H6.562c.033.709 0 7.551 0 7.551h2.573v-4.217c0-.225.017-.45.085-.612.186-.45.61-.917 1.32-.917.931 0 1.303.692 1.303 1.706v4.04h2.574z"/></svg>