<svg xmlns="http://www.w3.org/2000/svg" width="23" height="16"><path fill="#535353" d="M18.52 2.66a.196.196 0 01-.043-.036c-.866-.753-1.883-1.112-3.053-1.068l-.036-.078c.007-.007.014-.007.021-.007 1.061-.227 1.69-.459 1.877-.71.065-.205-.014-.318-.246-.346a6.472 6.472 0 00-1.465.33c.556-.33.773-.562.65-.682-.549.014-1.14.274-1.762.789.232-.367.318-.564.26-.599-.295.19-.556.394-.779.612-.47.486-.845.937-1.133 1.345l-.015.036c-.743 1.117-1.263 2.244-1.573 3.392l-.116.085-.021.02a5.787 5.787 0 00-1.624-1.31 19.595 19.595 0 00-2.671-1.315 23.508 23.508 0 00-3.4-1.323c-.007 1.189.62 2.139 1.87 2.83v.02a4.26 4.26 0 00-1.278.176c.08 1.105.924 1.864 2.526 2.287l-.007.02c-.628-.033-1.148.172-1.552.593.527.957 1.458 1.414 2.808 1.379-.267.127-.476.267-.613.423a.831.831 0 00-.246.844c.289.487.809.71 1.574.676l.043.05a.557.557 0 00-.022.02c-1.32 1.266-2.916 1.837-4.786 1.718l-.028.014c-1.14-.008-2.36-.514-3.681-1.528 1.328 1.773 3.09 3.055 5.27 3.858 2.496.767 4.994.823 7.484.168h.043c2.419-.648 4.468-1.978 6.157-3.99.78-1.057 1.27-2.062 1.466-3.027 1.263.042 2.172-.296 2.735-1.013l-.014-.021c-.419.14-1.242.098-2.462-.134V7.03c0-.006 0-.006.008 0 1.335-.14 2.122-.541 2.375-1.204a3.99 3.99 0 01-2.758.029c-.166-1.17-.757-2.232-1.782-3.196z"/></svg>